<?xml version="1.0" encoding="UTF-8" standalone="no"?>
<!DOCTYPE svg PUBLIC "-//W3C//DTD SVG 1.1//EN" "http://www.w3.org/Graphics/SVG/1.1/DTD/svg11.dtd">
<svg width="100%" height="100%" viewBox="0 0 200 200" version="1.1" xmlns="http://www.w3.org/2000/svg" xmlns:xlink="http://www.w3.org/1999/xlink" xml:space="preserve" xmlns:serif="http://www.serif.com/" style="fill-rule:evenodd;clip-rule:evenodd;stroke-linecap:round;stroke-linejoin:round;stroke-miterlimit:1.5;">
    <g transform="matrix(1,0,0,1,-2.84217e-14,-1575.57)">
        <g id="artboard-circle" transform="matrix(0.194828,0,0,0.18562,-242.494,1573.16)">
            <rect x="1244.65" y="13.015" width="1026.55" height="1077.47" style="fill:none;"/>
            <g transform="matrix(4.41654,0,0,4.63564,1311.03,-7326.85)">
                <circle cx="101.187" cy="1685.62" r="95.297" style="fill:none;"/>
                <clipPath id="_clip1">
                    <circle cx="101.187" cy="1685.62" r="95.297"/>
                </clipPath>
                <g clip-path="url(#_clip1)">
                    <g transform="matrix(0.207211,0,0,0.213004,-9.24722,1593.98)">
                        <path id="sombreror-top" d="M618.208,347.134L517.847,131.28C517.847,131.28 472.879,103.176 439.154,133.388C405.428,163.601 414.562,167.816 414.562,167.816C414.562,167.816 415.967,346.281 408.941,351.199C401.915,356.118 618.208,347.134 618.208,347.134Z" style="fill:rgb(255,164,0);stroke:black;stroke-width:10px;"/>
                        <path d="M612.02,343.917L579.876,276.809C579.876,276.809 417.839,307.582 417.443,318.372C417.007,330.236 414.909,349.4 414.909,349.4L595.625,347.744L612.02,343.917Z" style="fill:rgb(234,47,55);"/>
                        <path d="M127.113,499.783C127.113,499.783 264.124,330.277 560.979,346.085C857.835,361.894 937.758,455.869 937.758,455.869C937.758,455.869 923.705,555.114 733.12,578.827C542.535,602.541 397.621,628.011 337.02,620.106C276.419,612.202 145.557,607.81 127.113,499.783Z" style="fill:rgb(255,164,0);stroke:black;stroke-width:10px;"/>
                        <path d="M882.725,518.469C882.725,518.469 644.343,451.508 547.382,454.319C450.421,457.129 394.212,472.587 365.405,489.45C336.598,506.313 196.881,579.875 196.881,579.875C196.881,579.875 261.857,614.652 386.13,611.468L737.722,569.532L827.701,550.522L882.725,518.469Z" style="fill:rgb(143,96,13);stroke:rgb(143,96,13);stroke-width:10px;"/>
                        <path id="head" d="M410.643,485.318L660.662,485.318L786.6,869.65L339.033,871.757L410.643,485.318Z" style="fill:rgb(120,68,33);stroke:black;stroke-width:10px;"/>
                        <path d="M686.819,584.459C686.819,584.459 761.879,607.318 766.938,621.933C771.997,636.547 813.03,706.247 733.775,745.031" style="fill:rgb(120,68,33);stroke:black;stroke-width:10px;"/>
                        <g transform="matrix(2.9807,0,0,2.16528,-1226.18,-595.639)">
                            <circle cx="641.86" cy="585.792" r="19.673" style="stroke:black;stroke-width:3.84px;"/>
                        </g>
                        <g transform="matrix(1.18159,0,0,1.18159,-171.561,-96.1884)">
                            <path d="M607.411,519.079L596.728,544.865L596.728,598.463L607.227,627.012L611.832,594.227L611.279,547.444L607.411,519.079Z" style="fill:rgb(108,83,83);"/>
                        </g>
                        <g id="eyepatch" transform="matrix(1,0,0,1,15.1765,-89.3729)">
                            <path d="M529.741,633.737C538.684,633.737 547.261,637.193 553.584,643.344C559.908,649.496 563.46,657.839 563.46,666.539C563.46,667.154 563.46,667.771 563.46,668.386C563.46,677.086 559.908,685.429 553.584,691.581C547.261,697.732 538.684,701.188 529.741,701.188C529.737,701.188 529.732,701.188 529.728,701.188C520.785,701.188 512.209,697.732 505.885,691.581C499.562,685.429 496.009,677.086 496.009,668.386C496.009,667.771 496.009,667.154 496.009,666.539C496.009,657.839 499.562,649.496 505.885,643.344C512.209,637.193 520.785,633.737 529.728,633.737C529.732,633.737 529.737,633.737 529.741,633.737Z" style="stroke:black;stroke-width:10px;"/>
                        </g>
                        <g id="eye" transform="matrix(0.71328,0,0,0.71328,173.789,141.827)">
                            <circle cx="641.86" cy="585.792" r="19.673" style="stroke:black;stroke-width:14.02px;"/>
                        </g>
                        <path id="eyepatch-band" d="M404.803,516.833L505.553,554.175L578.625,554.877L663.642,509.207" style="fill:none;stroke:black;stroke-width:10px;"/>
                        <path d="M137.855,512.315C137.855,512.315 351.45,416.759 378.15,406.922C404.849,397.086 531.32,386.546 554.506,390.059C577.693,393.573 813.069,416.056 832.04,425.893C851.01,435.729 932.514,459.618 932.514,459.618L853.821,406.22L699.948,364.765L508.134,344.389L382.366,361.955L269.947,400.599L185.633,449.079L147.692,479.994L130.829,498.262L137.855,512.315Z" style="fill:rgb(4,212,42);"/>
                        <path id="ear_right" d="M581.712,417.032L619.484,360.553L668.409,374.583L666.61,440.775L581.712,417.032Z" style="fill:rgb(120,68,33);stroke:black;stroke-width:10px;"/>
                        <path id="eyar_left" d="M461.199,369.186L413.713,383.216L414.433,450.488L497.892,425.306L461.199,369.186Z" style="fill:rgb(120,68,33);stroke:black;stroke-width:10px;"/>
                        <path d="M596.676,344.27L548.971,286.067L544.735,341.691L596.676,344.27Z" style="fill:rgb(21,208,200);"/>
                        <g transform="matrix(0.894725,0,0,0.752769,3.52986,83.963)">
                            <path d="M596.676,344.27L548.971,286.067L544.735,341.691L596.676,344.27Z" style="fill:rgb(21,208,200);"/>
                        </g>
                        <g transform="matrix(0.64539,0,0,0.574763,91.2902,149.274)">
                            <path d="M596.676,344.27L548.971,286.067L544.735,341.691L596.676,344.27Z" style="fill:rgb(21,208,200);"/>
                        </g>
                        <path d="M733.12,578.827C718.581,580.636 704.307,582.456 690.317,584.27" style="fill:none;stroke:black;stroke-width:10px;"/>
                        <path d="M384.11,620.742C362.124,621.975 350.773,621.9 337.02,620.106C276.419,612.202 145.557,607.81 127.113,499.783C127.113,499.783 264.124,330.277 560.979,346.085C857.835,361.894 937.758,455.869 937.758,455.869C937.758,455.869 923.705,555.114 733.12,578.827" style="fill:none;stroke:black;stroke-width:10px;"/>
                    </g>
                </g>
                <circle cx="101.187" cy="1685.62" r="95.297" style="fill:none;stroke:black;stroke-width:4.65px;"/>
            </g>
            <g transform="matrix(0.998586,0,0,1.04357,1174.8,64.2272)">
                <g transform="matrix(144,0,0,144,1030.4,951.004)">
                </g>
                <text x="139.975px" y="951.004px" style="font-family:'Rockwell';font-size:144px;">S<tspan x="217.844px 334.737px 462.177px 547.571px 635.987px 727.427px 829.414px 914.948px " y="951.004px 951.004px 951.004px 951.004px 951.004px 951.004px 951.004px 951.004px ">OMBREARO</tspan></text>
            </g>
        </g>
    </g>
</svg>
